<svg width="31" height="32" viewBox="0 0 31 32" fill="currentColor" xmlns="http://www.w3.org/2000/svg">
<path d="M17.28 13.2063L25.7376 14.8863C26.4192 15.0303 26.88 15.6063 26.88 16.2879V26.0799C26.88 26.8767 26.2368 27.5199 25.44 27.5199H16.8C17.0688 27.5199 17.28 27.3087 17.28 27.0399V26.5599H25.44C25.6992 26.5599 25.92 26.3487 25.92 26.0799V16.2879C25.92 16.0671 25.7664 15.8655 25.5456 15.8175L17.28 14.1855V13.2063Z" />
<path d="M22.56 17.9181C22.8288 17.9181 23.04 18.1293 23.04 18.3981C23.04 18.6669 22.8288 18.8781 22.56 18.8781H20.64C20.3712 18.8781 20.16 18.6669 20.16 18.3981C20.16 18.1293 20.3712 17.9181 20.64 17.9181H22.56Z" />
<path d="M22.56 20.7981C22.8288 20.7981 23.04 21.0093 23.04 21.2781C23.04 21.5469 22.8288 21.7581 22.56 21.7581H20.64C20.3712 21.7581 20.16 21.5469 20.16 21.2781C20.16 21.0093 20.3712 20.7981 20.64 20.7981H22.56Z" />
<path d="M22.56 23.6781C22.8288 23.6781 23.04 23.8893 23.04 24.1581C23.04 24.4269 22.8288 24.6381 22.56 24.6381H20.64C20.3712 24.6381 20.16 24.4269 20.16 24.1581C20.16 23.8893 20.3712 23.6781 20.64 23.6781H22.56Z" />
<path d="M17.2799 27.0399C17.2799 27.3087 17.0687 27.5199 16.7999 27.5199C16.5311 27.5199 16.3199 27.3087 16.3199 27.0399V26.5599V13.5999C16.3199 13.4559 16.3871 13.3215 16.4927 13.2255C16.6079 13.1391 16.7519 13.1007 16.8959 13.1295L17.2799 13.2063V14.1855V26.5599V27.0399Z" />
<path d="M16.32 26.5581V27.0381C16.32 27.3069 16.5312 27.5181 16.8 27.5181H12.96C13.2288 27.5181 13.44 27.3069 13.44 27.0381V26.5581H16.32Z" />
<path d="M13.9201 9.27813C14.1889 9.27813 14.4001 9.48933 14.4001 9.75812C14.4001 10.0269 14.1889 10.2381 13.9201 10.2381H12.0001C11.7313 10.2381 11.5201 10.0269 11.5201 9.75812C11.5201 9.48933 11.7313 9.27813 12.0001 9.27813H13.9201Z" />
<path d="M14.4001 12.6381C14.4001 12.9069 14.1889 13.1181 13.9201 13.1181H12.0001C11.7313 13.1181 11.5201 12.9069 11.5201 12.6381C11.5201 12.3693 11.7313 12.1581 12.0001 12.1581H13.9201C14.1889 12.1581 14.4001 12.3693 14.4001 12.6381Z" />
<path d="M13.9201 15.0381C14.1889 15.0381 14.4001 15.2493 14.4001 15.5181C14.4001 15.7869 14.1889 15.9981 13.9201 15.9981H12.0001C11.7313 15.9981 11.5201 15.7869 11.5201 15.5181C11.5201 15.2493 11.7313 15.0381 12.0001 15.0381H13.9201Z" />
<path d="M13.9201 17.9181C14.1889 17.9181 14.4001 18.1293 14.4001 18.3981C14.4001 18.6669 14.1889 18.8781 13.9201 18.8781H12.0001C11.7313 18.8781 11.5201 18.6669 11.5201 18.3981C11.5201 18.1293 11.7313 17.9181 12.0001 17.9181H13.9201Z" />
<path d="M9.6 18.3981C9.6 18.6669 9.3888 18.8781 9.12 18.8781H7.2C6.9312 18.8781 6.72 18.6669 6.72 18.3981C6.72 18.1293 6.9312 17.9181 7.2 17.9181H9.12C9.3888 17.9181 9.6 18.1293 9.6 18.3981Z" />
<path d="M9.12 9.27813C9.3888 9.27813 9.6 9.48933 9.6 9.75812C9.6 10.0269 9.3888 10.2381 9.12 10.2381H7.2C6.9312 10.2381 6.72 10.0269 6.72 9.75812C6.72 9.48933 6.9312 9.27813 7.2 9.27813H9.12Z" />
<path d="M9.12 12.1581C9.3888 12.1581 9.6 12.3693 9.6 12.6381C9.6 12.9069 9.3888 13.1181 9.12 13.1181H7.2C6.9312 13.1181 6.72 12.9069 6.72 12.6381C6.72 12.3693 6.9312 12.1581 7.2 12.1581H9.12Z" />
<path d="M9.12 15.0381C9.3888 15.0381 9.6 15.2493 9.6 15.5181C9.6 15.7869 9.3888 15.9981 9.12 15.9981H7.2C6.9312 15.9981 6.72 15.7869 6.72 15.5181C6.72 15.2493 6.9312 15.0381 7.2 15.0381H9.12Z" />
<path d="M12.48 22.2381C12.48 21.9693 12.2592 21.7581 12 21.7581H9.12C8.8512 21.7581 8.64 21.9693 8.64 22.2381V26.5581H7.68V22.2381C7.68 21.4413 8.3232 20.7981 9.12 20.7981H12C12.7968 20.7981 13.44 21.4413 13.44 22.2381V26.5581H12.48V22.2381Z" />
<path d="M8.64 26.5581H12.48H13.44V27.0381C13.44 27.3069 13.2288 27.5181 12.96 27.5181H8.16C7.8912 27.5181 7.68 27.3069 7.68 27.0381V26.5581H8.64Z" />
<path d="M5.52 4.67119L16.0704 6.27439C16.7712 6.38959 17.28 6.98479 17.28 7.69519V13.2056L16.896 13.1288C16.752 13.1 16.608 13.1384 16.4928 13.2248C16.3872 13.3208 16.32 13.4552 16.32 13.5992V7.69519C16.32 7.45519 16.1472 7.25359 15.9168 7.21519L5.3664 5.62159C5.3376 5.61199 5.3088 5.61199 5.28 5.61199C5.1648 5.61199 5.0592 5.65039 4.9728 5.72719C4.8576 5.82319 4.8 5.94799 4.8 6.09199V26.0792C4.8 26.348 5.0208 26.5592 5.28 26.5592H7.68V27.0392C7.68 27.308 7.8912 27.5192 8.16 27.5192H5.28C4.4832 27.5192 3.84 26.876 3.84 26.0792V6.09199C3.84 5.66959 4.0224 5.26639 4.3488 4.99759C4.6752 4.71919 5.0976 4.60399 5.52 4.67119Z" />
</svg>
