<svg width="25" height="21" viewBox="0 0 25 21" fill="none" xmlns="http://www.w3.org/2000/svg">
<path fill-rule="evenodd" clip-rule="evenodd" d="M8.31787 0.910895C6.51197 1.29031 4.98942 2.66826 4.43572 4.42432C3.94311 5.98654 4.18018 7.56892 5.11358 8.94922C5.40991 9.38748 5.95874 9.93125 6.43048 10.254C6.6607 10.4115 6.78899 10.5261 6.7496 10.539C6.71336 10.5509 6.45163 10.637 6.16795 10.7303C5.52141 10.943 4.47013 11.4558 3.91732 11.8281C2.0922 13.0574 0.841455 14.7434 0.303506 16.6995C0.0782554 17.5186 -0.00708114 18.3146 0.0109708 19.4277L0.0255999 20.3275L0.178737 20.4642C0.388327 20.6513 0.68391 20.6566 0.864148 20.4764C0.932652 20.4078 0.997545 20.3076 1.00833 20.2536C1.01911 20.1997 1.03904 19.6913 1.05264 19.124C1.09048 17.5427 1.26664 16.7546 1.83548 15.6206C2.17111 14.9515 2.56422 14.4269 3.23655 13.7509C3.97223 13.0111 4.54693 12.5924 5.4071 12.1697C6.73577 11.5166 7.91449 11.2486 9.42668 11.2557C10.5863 11.2612 11.3522 11.3912 12.433 11.766C14.6007 12.5179 16.4223 14.2016 17.2196 16.1907C17.5981 17.1349 17.7251 17.867 17.7256 19.1064C17.7258 19.6125 17.7394 20.0937 17.7558 20.1759C17.8624 20.7091 18.6116 20.7536 18.7556 20.2354C18.8156 20.0192 18.8167 19.0289 18.7577 18.2704C18.6727 17.1772 18.4493 16.3368 17.9868 15.3701C17.0211 13.3513 15.301 11.7771 13.1067 10.9039C12.8485 10.8012 12.5453 10.6923 12.4328 10.662C11.9492 10.5318 11.9526 10.5404 12.2922 10.3126C13.1764 9.71945 13.9354 8.75337 14.2982 7.75924C14.9621 5.94017 14.5338 3.87104 13.2012 2.45933C12.4291 1.64137 11.3919 1.0735 10.3176 0.880558C9.79855 0.787344 8.8365 0.801926 8.31787 0.910895ZM10.4151 1.95964C12.0059 2.39945 13.1623 3.62727 13.4848 5.21889C13.5814 5.69574 13.5565 6.63426 13.4355 7.07369C13.3357 7.43642 13.0023 8.1336 12.7852 8.43345C12.2019 9.2395 11.3433 9.81956 10.3742 10.0623C9.81426 10.2025 8.91312 10.2003 8.3717 10.0573C6.37398 9.52974 5.02744 7.59771 5.25481 5.58518C5.46824 3.69568 6.83709 2.23131 8.70742 1.89166C9.03657 1.83187 10.1072 1.87449 10.4151 1.95964ZM16.475 2.95283C16.2596 3.05903 16.152 3.30702 16.2212 3.53785C16.3013 3.80526 16.4448 3.89214 16.8694 3.93031C17.4043 3.97841 17.6066 4.03501 18.101 4.27479C18.7233 4.57666 19.1702 5.02135 19.4784 5.64562C19.7563 6.20856 19.8531 6.65095 19.8215 7.21436C19.7357 8.74455 18.5671 9.98456 17.0519 10.1533C16.4962 10.2152 16.3339 10.2859 16.2417 10.5065C16.1828 10.6475 16.1794 10.713 16.2235 10.8599C16.3038 11.1283 16.4664 11.2052 17.0371 11.2448C19.2605 11.399 21.0725 12.4413 22.1513 14.1864C22.7374 15.1345 22.9746 16.107 22.9766 17.5694C22.9773 18.1007 22.9887 18.1876 23.0735 18.3067C23.2935 18.6157 23.7989 18.5747 23.9403 18.2363C23.9908 18.1155 24.0088 17.8761 24.0086 17.332C24.0082 16.0905 23.8292 15.2311 23.3718 14.2745C22.7972 13.0727 21.9442 12.1111 20.7971 11.3718C20.4287 11.1344 19.6578 10.7611 19.2849 10.6396C19.1496 10.5954 19.0388 10.5399 19.0388 10.5162C19.0388 10.4925 19.0581 10.4731 19.0818 10.4731C19.1652 10.4731 19.8921 9.75002 20.0915 9.46869C21.1253 8.01024 21.1253 6.08965 20.0916 4.6318C19.8058 4.22875 19.2098 3.68616 18.7911 3.44778C17.9991 2.99686 16.8735 2.75632 16.475 2.95283Z" fill="#6d7986"/>
</svg>
